<svg width="600" height="200" viewBox="0 0 600 200" xmlns="http://www.w3.org/2000/svg">
  <rect width="600" height="200" fill="none"/>
  
  <g transform="translate(40, 40) scale(0.8)">
    <path d="M100 20C60 20 20 60 20 100C20 140 60 180 100 180C110 180 120 178 130 174C110 160 90 140 85 120C80 100 85 80 100 60C115 40 140 30 160 25C145 22 120 20 100 20Z" fill="#002D5A"/>
    <path d="M100 20C140 20 180 60 180 100C180 140 140 180 100 180C90 180 80 178 70 174C90 160 110 140 115 120C120 100 115 80 100 60C85 40 60 30 40 25C55 22 80 20 100 20Z" fill="#004A99" opacity="0.8"/>
    <path d="M30 140C50 120 80 100 100 90C120 80 150 70 170 30L175 25C170 40 150 75 120 85C90 95 60 115 35 145Z" fill="#F37021"/>
    <path d="M85 120L115 120" stroke="white" stroke-width="4" stroke-dasharray="10,5"/>
  </g>

  <text x="220" y="115" font-family="Arial, sans-serif" font-size="72" font-weight="900" fill="#002D5A">AXON</text>
  
  <circle cx="438" cy="100" r="14" fill="none" stroke="#004A99" stroke-width="3"/>
  <circle cx="438" cy="100" r="6" fill="#004A99"/>
  <circle cx="458" cy="85" r="5" fill="#004A99"/>

  <text x="222" y="145" font-family="Arial, sans-serif" font-size="18" letter-spacing="2" font-weight="bold" fill="#002D5A">ORCHESTRATING FIELD EXCELLENCE</text>
</svg>
